CothamSansCustomGabi.ufo
<glyph name="numbersign" format="2">
  <advance width="819"/>
  <unicode hex="0023"/>
  <outline>
    <contour>
      <point x="780" y="527" type="line"/>
      <point x="41" y="527" type="line"/>
      <point x="41" y="444" type="line"/>
      <point x="780" y="444" type="line"/>
    </contour>
    <contour>
      <point x="713" y="757" type="line"/>
      <point x="619" y="757" type="line"/>
      <point x="359" y="0" type="line"/>
      <point x="453" y="0" type="line"/>
    </contour>
    <contour>
      <point x="41" y="230" type="line"/>
      <point x="780" y="230" type="line"/>
      <point x="780" y="313" type="line"/>
      <point x="41" y="313" type="line"/>
    </contour>
    <contour>
      <point x="359" y="0" type="line"/>
      <point x="453" y="0" type="line"/>
      <point x="713" y="757" type="line"/>
      <point x="619" y="757" type="line"/>
    </contour>
    <contour>
      <point x="108" y="0" type="line"/>
      <point x="202" y="0" type="line"/>
      <point x="462" y="757" type="line"/>
      <point x="368" y="757" type="line"/>
    </contour>
  </outline>
</glyph>
<glyph name="asterisk" format="2">
  <advance width="139"/>
  <unicode hex="002A"/>
  <outline>
    <contour>
      <point x="13.0137" y="637.948" type="line"/>
      <point x="113.066" y="694.646" type="line"/>
      <point x="127.363" y="669.414" type="line"/>
      <point x="27.3105" y="612.718" type="line"/>
    </contour>
    <contour>
      <point x="13.0137" y="670.052" type="line"/>
      <point x="27.3105" y="695.282" type="line"/>
      <point x="127.363" y="638.586" type="line"/>
      <point x="113.066" y="613.354" type="line"/>
    </contour>
    <contour>
      <point x="55" y="598" type="line"/>
      <point x="55" y="713" type="line"/>
      <point x="84" y="713" type="line"/>
      <point x="84" y="598" type="line"/>
    </contour>
  </outline>
</glyph>
<glyph name="plus" format="2">
  <advance width="425"/>
  <unicode hex="002B"/>
  <outline>
    <contour>
      <point x="55" y="230" type="line"/>
      <point x="370" y="230" type="line"/>
      <point x="370" y="313" type="line"/>
      <point x="55" y="313" type="line"/>
    </contour>
    <contour>
      <point x="251" y="425" type="line"/>
      <point x="168" y="425" type="line"/>
      <point x="168" y="110" type="line"/>
      <point x="251" y="110" type="line"/>
    </contour>
  </outline>
</glyph>
<glyph name="exclamdown" format="2">
  <advance width="319"/>
  <unicode hex="00A1"/>
  <outline>
    <contour>
      <point x="122" y="6" type="line"/>
      <point x="122" y="-238" type="line"/>
      <point x="214" y="-238" type="line"/>
      <point x="214" y="6" type="line"/>
      <point x="201" y="282" type="line"/>
      <point x="135" y="282" type="line"/>
    </contour>
    <contour>
      <point x="97" y="434" type="curve" smooth="yes"/>
      <point x="97" y="476"/>
      <point x="129" y="508"/>
      <point x="171" y="508" type="curve" smooth="yes"/>
      <point x="216" y="508"/>
      <point x="249" y="476"/>
      <point x="249" y="434" type="curve" smooth="yes"/>
      <point x="249" y="389"/>
      <point x="216" y="356"/>
      <point x="171" y="356" type="curve" smooth="yes"/>
      <point x="129" y="356"/>
      <point x="97" y="389"/>
    </contour>
  </outline>
</glyph>
<glyph name="dieresis" format="2">
  <advance width="293"/>
  <unicode hex="00A8"/>
  <outline>
    <contour>
      <point x="3" y="635" type="curve" smooth="yes"/>
      <point x="3" y="602"/>
      <point x="24" y="582"/>
      <point x="59" y="582" type="curve" smooth="yes"/>
      <point x="94" y="582"/>
      <point x="114" y="602"/>
      <point x="114" y="635" type="curve" smooth="yes"/>
      <point x="114" y="668"/>
      <point x="94" y="688"/>
      <point x="59" y="688" type="curve" smooth="yes"/>
      <point x="24" y="688"/>
      <point x="3" y="668"/>
    </contour>
    <contour>
      <point x="178" y="635" type="curve" smooth="yes"/>
      <point x="178" y="602"/>
      <point x="199" y="582"/>
      <point x="234" y="582" type="curve" smooth="yes"/>
      <point x="269" y="582"/>
      <point x="289" y="602"/>
      <point x="289" y="635" type="curve" smooth="yes"/>
      <point x="289" y="668"/>
      <point x="269" y="688"/>
      <point x="234" y="688" type="curve" smooth="yes"/>
      <point x="199" y="688"/>
      <point x="178" y="668"/>
    </contour>
  </outline>
</glyph>
<glyph name="degree" format="2">
  <advance width="135"/>
  <unicode hex="00B0"/>
  <outline>
    <contour>
      <point x="12.5" y="654.25" type="curve"/>
      <point x="12.5" y="686"/>
      <point x="31.5" y="717.75"/>
      <point x="70.75" y="717.75" type="curve" smooth="yes"/>
      <point x="109.5" y="717.75"/>
      <point x="128.75" y="688.5"/>
      <point x="128.75" y="656.75" type="curve" smooth="yes"/>
      <point x="128.75" y="625.25"/>
      <point x="109.5" y="596"/>
      <point x="70.75" y="596" type="curve" smooth="yes"/>
      <point x="31.5" y="596"/>
      <point x="12.5" y="625.25"/>
    </contour>
    <contour>
      <point x="35.25" y="656.75" type="curve"/>
      <point x="35.25" y="635.75"/>
      <point x="44.75" y="612.5"/>
      <point x="70.75" y="612.5" type="curve" smooth="yes"/>
      <point x="96.75" y="612.5"/>
      <point x="105.75" y="635.75"/>
      <point x="105.75" y="656.75" type="curve" smooth="yes"/>
      <point x="105.75" y="678"/>
      <point x="96.75" y="701.25"/>
      <point x="70.75" y="701.25" type="curve" smooth="yes"/>
      <point x="44.75" y="701.25"/>
      <point x="35.25" y="678"/>
    </contour>
  </outline>
</glyph>
<glyph name="acute" format="2">
  <advance width="227"/>
  <unicode hex="00B4"/>
  <outline>
    <contour>
      <point x="116" y="740" type="line"/>
      <point x="22" y="542" type="line"/>
      <point x="87" y="542" type="line"/>
      <point x="208" y="740" type="line"/>
    </contour>
  </outline>
</glyph>
<glyph name="cedilla" format="2">
  <advance width="243"/>
  <unicode hex="00B8"/>
  <outline>
    <contour>
      <point x="83" y="11" type="line"/>
      <point x="63" y="-79" type="line"/>
      <point x="111" y="-74"/>
      <point x="150" y="-94"/>
      <point x="150" y="-125" type="curve" smooth="yes"/>
      <point x="150" y="-150"/>
      <point x="126" y="-159"/>
      <point x="104" y="-159" type="curve" smooth="yes"/>
      <point x="75" y="-159"/>
      <point x="49" y="-147"/>
      <point x="49" y="-147" type="curve"/>
      <point x="32" y="-196" type="line"/>
      <point x="46" y="-203"/>
      <point x="72" y="-214"/>
      <point x="114" y="-214" type="curve" smooth="yes"/>
      <point x="165" y="-214"/>
      <point x="226" y="-192"/>
      <point x="226" y="-126" type="curve" smooth="yes"/>
      <point x="226" y="-72"/>
      <point x="183" y="-46"/>
      <point x="137" y="-35" type="curve"/>
      <point x="140" y="11" type="line"/>
    </contour>
  </outline>
</glyph>
<glyph name="Aacute" format="2">
  <advance width="683"/>
  <unicode hex="00C1"/>
  <outline>
    <contour>
      <point x="342" y="1006" type="line"/>
      <point x="248" y="808" type="line"/>
      <point x="313" y="808" type="line"/>
      <point x="434" y="1006" type="line"/>
    </contour>
    <contour>
      <point x="24" y="0" type="line"/>
      <point x="119" y="0" type="line"/>
      <point x="193" y="211"/>
      <point x="279" y="446"/>
      <point x="353" y="658" type="curve"/>
      <point x="353" y="740" type="line"/>
      <point x="296" y="740" type="line"/>
    </contour>
    <contour>
      <point x="183" y="225" type="line"/>
      <point x="515" y="225" type="line"/>
      <point x="515" y="297" type="line"/>
      <point x="183" y="297" type="line"/>
    </contour>
    <contour>
      <point x="397" y="740" type="line"/>
      <point x="342" y="740" type="line"/>
      <point x="342" y="659" type="line"/>
      <point x="416" y="446"/>
      <point x="504" y="213"/>
      <point x="577" y="0" type="curve"/>
      <point x="671" y="0" type="line"/>
    </contour>
  </outline>
</glyph>
<glyph name="Acircumflex" format="2">
  <advance width="683"/>
  <unicode hex="00C2"/>
  <outline>
    <contour>
      <point x="319" y="1025" type="line"/>
      <point x="167" y="817" type="line"/>
      <point x="249" y="817" type="line"/>
      <point x="350" y="944" type="line"/>
      <point x="451" y="817" type="line"/>
      <point x="533" y="817" type="line"/>
      <point x="381" y="1025" type="line"/>
    </contour>
    <contour>
      <point x="24" y="0" type="line"/>
      <point x="119" y="0" type="line"/>
      <point x="193" y="211"/>
      <point x="279" y="446"/>
      <point x="353" y="658" type="curve"/>
      <point x="353" y="740" type="line"/>
      <point x="296" y="740" type="line"/>
    </contour>
    <contour>
      <point x="183" y="225" type="line"/>
      <point x="515" y="225" type="line"/>
      <point x="515" y="297" type="line"/>
      <point x="183" y="297" type="line"/>
    </contour>
    <contour>
      <point x="397" y="740" type="line"/>
      <point x="342" y="740" type="line"/>
      <point x="342" y="659" type="line"/>
      <point x="416" y="446"/>
      <point x="504" y="213"/>
      <point x="577" y="0" type="curve"/>
      <point x="671" y="0" type="line"/>
    </contour>
  </outline>
</glyph>
<glyph name="Atilde" format="2">
  <advance width="683"/>
  <unicode hex="00C3"/>
  <outline>
    <contour>
      <point x="237" y="817" type="line"/>
      <point x="237" y="841"/>
      <point x="244" y="880"/>
      <point x="285" y="880" type="curve" smooth="yes"/>
      <point x="318" y="880"/>
      <point x="351" y="822"/>
      <point x="409" y="822" type="curve" smooth="yes"/>
      <point x="497" y="822"/>
      <point x="525" y="891"/>
      <point x="525" y="957" type="curve"/>
      <point x="472" y="957" type="line"/>
      <point x="472" y="933"/>
      <point x="471" y="894"/>
      <point x="424" y="894" type="curve" smooth="yes"/>
      <point x="391" y="894"/>
      <point x="358" y="952"/>
      <point x="300" y="952" type="curve" smooth="yes"/>
      <point x="212" y="952"/>
      <point x="184" y="883"/>
      <point x="184" y="817" type="curve"/>
    </contour>
    <contour>
      <point x="24" y="0" type="line"/>
      <point x="119" y="0" type="line"/>
      <point x="193" y="211"/>
      <point x="279" y="446"/>
      <point x="353" y="658" type="curve"/>
      <point x="353" y="740" type="line"/>
      <point x="296" y="740" type="line"/>
    </contour>
    <contour>
      <point x="183" y="225" type="line"/>
      <point x="515" y="225" type="line"/>
      <point x="515" y="297" type="line"/>
      <point x="183" y="297" type="line"/>
    </contour>
    <contour>
      <point x="397" y="740" type="line"/>
      <point x="342" y="740" type="line"/>
      <point x="342" y="659" type="line"/>
      <point x="416" y="446"/>
      <point x="504" y="213"/>
      <point x="577" y="0" type="curve"/>
      <point x="671" y="0" type="line"/>
    </contour>
  </outline>
</glyph>
<glyph name="Aring" format="2">
  <advance width="683"/>
  <unicode hex="00C5"/>
  <outline>
    <contour>
      <point x="286.5" y="857.25" type="curve"/>
      <point x="286.5" y="889"/>
      <point x="305.5" y="920.75"/>
      <point x="344.75" y="920.75" type="curve" smooth="yes"/>
      <point x="383.5" y="920.75"/>
      <point x="402.75" y="891.5"/>
      <point x="402.75" y="859.75" type="curve" smooth="yes"/>
      <point x="402.75" y="828.25"/>
      <point x="383.5" y="799"/>
      <point x="344.75" y="799" type="curve" smooth="yes"/>
      <point x="305.5" y="799"/>
      <point x="286.5" y="828.25"/>
    </contour>
    <contour>
      <point x="309.25" y="859.75" type="curve"/>
      <point x="309.25" y="838.75"/>
      <point x="318.75" y="815.5"/>
      <point x="344.75" y="815.5" type="curve" smooth="yes"/>
      <point x="370.75" y="815.5"/>
      <point x="379.75" y="838.75"/>
      <point x="379.75" y="859.75" type="curve" smooth="yes"/>
      <point x="379.75" y="881"/>
      <point x="370.75" y="904.25"/>
      <point x="344.75" y="904.25" type="curve" smooth="yes"/>
      <point x="318.75" y="904.25"/>
      <point x="309.25" y="881"/>
    </contour>
    <contour>
      <point x="24" y="0" type="line"/>
      <point x="119" y="0" type="line"/>
      <point x="193" y="211"/>
      <point x="279" y="446"/>
      <point x="353" y="658" type="curve"/>
      <point x="353" y="740" type="line"/>
      <point x="296" y="740" type="line"/>
    </contour>
    <contour>
      <point x="183" y="225" type="line"/>
      <point x="515" y="225" type="line"/>
      <point x="515" y="297" type="line"/>
      <point x="183" y="297" type="line"/>
    </contour>
    <contour>
      <point x="397" y="740" type="line"/>
      <point x="342" y="740" type="line"/>
      <point x="342" y="659" type="line"/>
      <point x="416" y="446"/>
      <point x="504" y="213"/>
      <point x="577" y="0" type="curve"/>
      <point x="671" y="0" type="line"/>
    </contour>
  </outline>
</glyph>
<glyph name="Ccedilla" format="2">
  <advance width="772"/>
  <unicode hex="00C7"/>
  <outline>
    <contour>
      <point x="378" y="11" type="line"/>
      <point x="358" y="-79" type="line"/>
      <point x="406" y="-74"/>
      <point x="445" y="-94"/>
      <point x="445" y="-125" type="curve" smooth="yes"/>
      <point x="445" y="-150"/>
      <point x="421" y="-159"/>
      <point x="399" y="-159" type="curve" smooth="yes"/>
      <point x="370" y="-159"/>
      <point x="344" y="-147"/>
      <point x="344" y="-147" type="curve"/>
      <point x="327" y="-196" type="line"/>
      <point x="341" y="-203"/>
      <point x="367" y="-214"/>
      <point x="409" y="-214" type="curve" smooth="yes"/>
      <point x="460" y="-214"/>
      <point x="521" y="-192"/>
      <point x="521" y="-126" type="curve" smooth="yes"/>
      <point x="521" y="-72"/>
      <point x="478" y="-46"/>
      <point x="432" y="-35" type="curve"/>
      <point x="435" y="11" type="line"/>
    </contour>
    <contour>
      <point x="735" y="258" type="curve"/>
      <point x="638" y="269" type="line"/>
      <point x="628" y="136"/>
      <point x="538" y="71"/>
      <point x="418" y="71" type="curve" smooth="yes"/>
      <point x="258" y="71"/>
      <point x="159" y="188"/>
      <point x="159" y="370" type="curve" smooth="yes"/>
      <point x="159" y="542"/>
      <point x="256" y="673"/>
      <point x="418" y="673" type="curve" smooth="yes"/>
      <point x="530" y="673"/>
      <point x="625" y="598"/>
      <point x="629" y="471" type="curve"/>
      <point x="666" y="475" type="line"/>
      <point x="670" y="475"/>
      <point x="674" y="476"/>
      <point x="678" y="476" type="curve" smooth="yes"/>
      <point x="694" y="477"/>
      <point x="710" y="480"/>
      <point x="726" y="481" type="curve"/>
      <point x="724" y="560"/>
      <point x="696" y="625"/>
      <point x="649" y="669" type="curve" smooth="yes"/>
      <point x="595" y="720"/>
      <point x="512" y="750"/>
      <point x="420" y="750" type="curve" smooth="yes"/>
      <point x="202" y="750"/>
      <point x="56" y="589"/>
      <point x="56" y="360" type="curve" smooth="yes"/>
      <point x="56" y="138"/>
      <point x="184" y="-11"/>
      <point x="411" y="-11" type="curve" smooth="yes"/>
      <point x="492" y="-11"/>
      <point x="574" y="13"/>
      <point x="634" y="61" type="curve" smooth="yes"/>
      <point x="691" y="106"/>
      <point x="730" y="175"/>
    </contour>
  </outline>
</glyph>
<glyph name="Egrave" format="2">
  <advance width="575"/>
  <unicode hex="00C8"/>
  <outline>
    <contour>
      <point x="295" y="1006" type="line"/>
      <point x="389" y="808" type="line"/>
      <point x="324" y="808" type="line"/>
      <point x="203" y="1006" type="line"/>
    </contour>
    <contour>
      <point x="68" y="740" type="line"/>
      <point x="554" y="740" type="line"/>
      <point x="554" y="664" type="line"/>
      <point x="68" y="664" type="line"/>
    </contour>
    <contour>
      <point x="68" y="419" type="line"/>
      <point x="478" y="419" type="line"/>
      <point x="478" y="342" type="line"/>
      <point x="68" y="342" type="line"/>
    </contour>
    <contour>
      <point x="56" y="740" type="line"/>
      <point x="148" y="740" type="line"/>
      <point x="148" y="0" type="line"/>
      <point x="56" y="0" type="line"/>
    </contour>
    <contour>
      <point x="68" y="76" type="line"/>
      <point x="554" y="76" type="line"/>
      <point x="554" y="0" type="line"/>
      <point x="68" y="0" type="line"/>
    </contour>
  </outline>
</glyph>
<glyph name="Eacute" format="2">
  <advance width="575"/>
  <unicode hex="00C9"/>
  <outline>
    <contour>
      <point x="268" y="1010" type="line"/>
      <point x="174" y="812" type="line"/>
      <point x="239" y="812" type="line"/>
      <point x="360" y="1010" type="line"/>
    </contour>
    <contour>
      <point x="68" y="740" type="line"/>
      <point x="554" y="740" type="line"/>
      <point x="554" y="664" type="line"/>
      <point x="68" y="664" type="line"/>
    </contour>
    <contour>
      <point x="68" y="419" type="line"/>
      <point x="478" y="419" type="line"/>
      <point x="478" y="342" type="line"/>
      <point x="68" y="342" type="line"/>
    </contour>
    <contour>
      <point x="56" y="740" type="line"/>
      <point x="148" y="740" type="line"/>
      <point x="148" y="0" type="line"/>
      <point x="56" y="0" type="line"/>
    </contour>
    <contour>
      <point x="68" y="76" type="line"/>
      <point x="554" y="76" type="line"/>
      <point x="554" y="0" type="line"/>
      <point x="68" y="0" type="line"/>
    </contour>
  </outline>
</glyph>
<glyph name="Ecircumflex" format="2">
  <advance width="575"/>
  <unicode hex="00CA"/>
  <outline>
    <contour>
      <point x="282" y="1025" type="line"/>
      <point x="130" y="817" type="line"/>
      <point x="212" y="817" type="line"/>
      <point x="313" y="944" type="line"/>
      <point x="414" y="817" type="line"/>
      <point x="496" y="817" type="line"/>
      <point x="344" y="1025" type="line"/>
    </contour>
    <contour>
      <point x="68" y="740" type="line"/>
      <point x="554" y="740" type="line"/>
      <point x="554" y="664" type="line"/>
      <point x="68" y="664" type="line"/>
    </contour>
    <contour>
      <point x="68" y="419" type="line"/>
      <point x="478" y="419" type="line"/>
      <point x="478" y="342" type="line"/>
      <point x="68" y="342" type="line"/>
    </contour>
    <contour>
      <point x="56" y="740" type="line"/>
      <point x="148" y="740" type="line"/>
      <point x="148" y="0" type="line"/>
      <point x="56" y="0" type="line"/>
    </contour>
    <contour>
      <point x="68" y="76" type="line"/>
      <point x="554" y="76" type="line"/>
      <point x="554" y="0" type="line"/>
      <point x="68" y="0" type="line"/>
    </contour>
  </outline>
</glyph>
<glyph name="Igrave" format="2">
  <advance width="322"/>
  <unicode hex="00CC"/>
  <outline>
    <contour>
      <point x="148" y="1006" type="line"/>
      <point x="242" y="808" type="line"/>
      <point x="177" y="808" type="line"/>
      <point x="56" y="1006" type="line"/>
    </contour>
    <contour>
      <point x="112" y="740" type="line"/>
      <point x="204" y="740" type="line"/>
      <point x="204" y="0" type="line"/>
      <point x="112" y="0" type="line"/>
    </contour>
  </outline>
</glyph>
<glyph name="Iacute" format="2">
  <advance width="322"/>
  <unicode hex="00CD"/>
  <outline>
    <contour>
      <point x="159" y="1006" type="line"/>
      <point x="65" y="808" type="line"/>
      <point x="130" y="808" type="line"/>
      <point x="251" y="1006" type="line"/>
    </contour>
    <contour>
      <point x="112" y="740" type="line"/>
      <point x="204" y="740" type="line"/>
      <point x="204" y="0" type="line"/>
      <point x="112" y="0" type="line"/>
    </contour>
  </outline>
</glyph>
<glyph name="Icircumflex" format="2">
  <advance width="322"/>
  <unicode hex="00CE"/>
  <outline>
    <contour>
      <point x="130" y="1025" type="line"/>
      <point x="-22" y="817" type="line"/>
      <point x="60" y="817" type="line"/>
      <point x="161" y="944" type="line"/>
      <point x="262" y="817" type="line"/>
      <point x="344" y="817" type="line"/>
      <point x="192" y="1025" type="line"/>
    </contour>
    <contour>
      <point x="112" y="740" type="line"/>
      <point x="204" y="740" type="line"/>
      <point x="204" y="0" type="line"/>
      <point x="112" y="0" type="line"/>
    </contour>
  </outline>
</glyph>
<glyph name="Idieresis" format="2">
  <advance width="322"/>
  <unicode hex="00CF"/>
  <outline>
    <contour>
      <point x="112" y="740" type="line"/>
      <point x="204" y="740" type="line"/>
      <point x="204" y="0" type="line"/>
      <point x="112" y="0" type="line"/>
    </contour>
  </outline>
</glyph>
<glyph name="Eth" format="2">
  <advance width="771"/>
  <unicode hex="00D0"/>
  <outline>
    <contour>
      <point x="357" y="375" type="line"/>
      <point x="45" y="375" type="line"/>
      <point x="45" y="438" type="line"/>
      <point x="357" y="438" type="line"/>
    </contour>
    <contour>
      <point x="200" y="78" type="line"/>
      <point x="352" y="78" type="line"/>
      <point x="436" y="78"/>
      <point x="490" y="97"/>
      <point x="532" y="126" type="curve"/>
      <point x="596" y="177"/>
      <point x="634" y="269"/>
      <point x="634" y="370" type="curve" smooth="yes"/>
      <point x="634" y="471"/>
      <point x="596" y="563"/>
      <point x="532" y="614" type="curve"/>
      <point x="490" y="643"/>
      <point x="436" y="662"/>
      <point x="352" y="662" type="curve"/>
      <point x="200" y="662" type="line"/>
      <point x="200" y="740" type="line"/>
      <point x="377" y="740" type="line"/>
      <point x="439" y="740"/>
      <point x="522" y="721"/>
      <point x="575" y="691" type="curve"/>
      <point x="663" y="627"/>
      <point x="728" y="503"/>
      <point x="728" y="370" type="curve" smooth="yes"/>
      <point x="728" y="237"/>
      <point x="663" y="113"/>
      <point x="575" y="49" type="curve"/>
      <point x="522" y="19"/>
      <point x="439" y="0"/>
      <point x="377" y="0" type="curve"/>
      <point x="200" y="0" type="line"/>
    </contour>
    <contour>
      <point x="151" y="740" type="line"/>
      <point x="243" y="740" type="line"/>
      <point x="243" y="0" type="line"/>
      <point x="151" y="0" type="line"/>
    </contour>
  </outline>
</glyph>
<glyph name="Ntilde" format="2">
  <advance width="780"/>
  <unicode hex="00D1"/>
  <outline>
    <contour>
      <point x="280" y="817" type="line"/>
      <point x="280" y="841"/>
      <point x="287" y="880"/>
      <point x="328" y="880" type="curve" smooth="yes"/>
      <point x="361" y="880"/>
      <point x="394" y="822"/>
      <point x="452" y="822" type="curve" smooth="yes"/>
      <point x="540" y="822"/>
      <point x="568" y="891"/>
      <point x="568" y="957" type="curve"/>
      <point x="515" y="957" type="line"/>
      <point x="515" y="933"/>
      <point x="514" y="894"/>
      <point x="467" y="894" type="curve" smooth="yes"/>
      <point x="434" y="894"/>
      <point x="401" y="952"/>
      <point x="343" y="952" type="curve" smooth="yes"/>
      <point x="255" y="952"/>
      <point x="227" y="883"/>
      <point x="227" y="817" type="curve"/>
    </contour>
    <contour>
      <point x="101" y="740" type="line"/>
      <point x="193" y="740" type="line"/>
      <point x="193" y="0" type="line"/>
      <point x="101" y="0" type="line"/>
    </contour>
    <contour>
      <point x="577" y="0" type="line"/>
      <point x="161" y="658" type="line"/>
      <point x="161" y="740" type="line"/>
      <point x="213" y="740" type="line"/>
      <point x="345" y="530"/>
      <point x="499" y="288"/>
      <point x="630" y="77" type="curve"/>
      <point x="630" y="0" type="line"/>
    </contour>
    <contour>
      <point x="591" y="740" type="line"/>
      <point x="683" y="740" type="line"/>
      <point x="683" y="0" type="line"/>
      <point x="591" y="0" type="line"/>
    </contour>
  </outline>
</glyph>
<glyph name="Ograve" format="2">
  <advance width="810"/>
  <unicode hex="00D2"/>
  <outline>
    <contour>
      <point x="380" y="1006" type="line"/>
      <point x="474" y="808" type="line"/>
      <point x="409" y="808" type="line"/>
      <point x="288" y="1006" type="line"/>
    </contour>
    <contour>
      <point x="404" y="668" type="curve" smooth="yes"/>
      <point x="584" y="668"/>
      <point x="679" y="545"/>
      <point x="679" y="371" type="curve" smooth="yes"/>
      <point x="679" y="195"/>
      <point x="584" y="72"/>
      <point x="404" y="72" type="curve" smooth="yes"/>
      <point x="230" y="72"/>
      <point x="137" y="195"/>
      <point x="137" y="371" type="curve" smooth="yes"/>
      <point x="137" y="545"/>
      <point x="230" y="668"/>
    </contour>
    <contour>
      <point x="404" y="750" type="curve" smooth="yes"/>
      <point x="179" y="750"/>
      <point x="37" y="591"/>
      <point x="37" y="371" type="curve" smooth="yes"/>
      <point x="37" y="147"/>
      <point x="184" y="-10"/>
      <point x="404" y="-10" type="curve" smooth="yes"/>
      <point x="625" y="-10"/>
      <point x="777" y="147"/>
      <point x="777" y="371" type="curve" smooth="yes"/>
      <point x="777" y="591"/>
      <point x="631" y="750"/>
    </contour>
  </outline>
</glyph>
<glyph name="Otilde" format="2">
  <advance width="810"/>
  <unicode hex="00D5"/>
  <outline>
    <contour>
      <point x="280" y="817" type="line"/>
      <point x="280" y="841"/>
      <point x="287" y="880"/>
      <point x="328" y="880" type="curve" smooth="yes"/>
      <point x="361" y="880"/>
      <point x="394" y="822"/>
      <point x="452" y="822" type="curve" smooth="yes"/>
      <point x="540" y="822"/>
      <point x="568" y="891"/>
      <point x="568" y="957" type="curve"/>
      <point x="515" y="957" type="line"/>
      <point x="515" y="933"/>
      <point x="514" y="894"/>
      <point x="467" y="894" type="curve" smooth="yes"/>
      <point x="434" y="894"/>
      <point x="401" y="952"/>
      <point x="343" y="952" type="curve" smooth="yes"/>
      <point x="255" y="952"/>
      <point x="227" y="883"/>
      <point x="227" y="817" type="curve"/>
    </contour>
    <contour>
      <point x="404" y="668" type="curve" smooth="yes"/>
      <point x="584" y="668"/>
      <point x="679" y="545"/>
      <point x="679" y="371" type="curve" smooth="yes"/>
      <point x="679" y="195"/>
      <point x="584" y="72"/>
      <point x="404" y="72" type="curve" smooth="yes"/>
      <point x="230" y="72"/>
      <point x="137" y="195"/>
      <point x="137" y="371" type="curve" smooth="yes"/>
      <point x="137" y="545"/>
      <point x="230" y="668"/>
    </contour>
    <contour>
      <point x="404" y="750" type="curve" smooth="yes"/>
      <point x="179" y="750"/>
      <point x="37" y="591"/>
      <point x="37" y="371" type="curve" smooth="yes"/>
      <point x="37" y="147"/>
      <point x="184" y="-10"/>
      <point x="404" y="-10" type="curve" smooth="yes"/>
      <point x="625" y="-10"/>
      <point x="777" y="147"/>
      <point x="777" y="371" type="curve" smooth="yes"/>
      <point x="777" y="591"/>
      <point x="631" y="750"/>
    </contour>
  </outline>
</glyph>
<glyph name="Ugrave" format="2">
  <advance width="751"/>
  <unicode hex="00D9"/>
  <outline>
    <contour>
      <point x="380" y="1006" type="line"/>
      <point x="474" y="808" type="line"/>
      <point x="409" y="808" type="line"/>
      <point x="288" y="1006" type="line"/>
    </contour>
    <contour>
      <point x="378" y="-10" type="curve" smooth="yes"/>
      <point x="608" y="-10"/>
      <point x="685" y="141"/>
      <point x="685" y="291" type="curve"/>
      <point x="685" y="740" type="line"/>
      <point x="593" y="740" type="line"/>
      <point x="593" y="291" type="line"/>
      <point x="593" y="119"/>
      <point x="485" y="74"/>
      <point x="378" y="74" type="curve" smooth="yes"/>
      <point x="271" y="74"/>
      <point x="164" y="119"/>
      <point x="164" y="291" type="curve"/>
      <point x="164" y="740" type="line"/>
      <point x="73" y="740" type="line"/>
      <point x="73" y="291" type="line"/>
      <point x="73" y="141"/>
      <point x="149" y="-10"/>
    </contour>
  </outline>
</glyph>
<glyph name="Uacute" format="2">
  <advance width="751"/>
  <unicode hex="00DA"/>
  <outline>
    <contour>
      <point x="392" y="1006" type="line"/>
      <point x="298" y="808" type="line"/>
      <point x="363" y="808" type="line"/>
      <point x="484" y="1006" type="line"/>
    </contour>
    <contour>
      <point x="378" y="-10" type="curve" smooth="yes"/>
      <point x="608" y="-10"/>
      <point x="685" y="141"/>
      <point x="685" y="291" type="curve"/>
      <point x="685" y="740" type="line"/>
      <point x="593" y="740" type="line"/>
      <point x="593" y="291" type="line"/>
      <point x="593" y="119"/>
      <point x="485" y="74"/>
      <point x="378" y="74" type="curve" smooth="yes"/>
      <point x="271" y="74"/>
      <point x="164" y="119"/>
      <point x="164" y="291" type="curve"/>
      <point x="164" y="740" type="line"/>
      <point x="73" y="740" type="line"/>
      <point x="73" y="291" type="line"/>
      <point x="73" y="141"/>
      <point x="149" y="-10"/>
    </contour>
  </outline>
</glyph>
<glyph name="Ucircumflex" format="2">
  <advance width="751"/>
  <unicode hex="00DB"/>
  <outline>
    <contour>
      <point x="341" y="1025" type="line"/>
      <point x="189" y="817" type="line"/>
      <point x="271" y="817" type="line"/>
      <point x="372" y="944" type="line"/>
      <point x="473" y="817" type="line"/>
      <point x="555" y="817" type="line"/>
      <point x="403" y="1025" type="line"/>
    </contour>
    <contour>
      <point x="378" y="-10" type="curve" smooth="yes"/>
      <point x="608" y="-10"/>
      <point x="685" y="141"/>
      <point x="685" y="291" type="curve"/>
      <point x="685" y="740" type="line"/>
      <point x="593" y="740" type="line"/>
      <point x="593" y="291" type="line"/>
      <point x="593" y="119"/>
      <point x="485" y="74"/>
      <point x="378" y="74" type="curve" smooth="yes"/>
      <point x="271" y="74"/>
      <point x="164" y="119"/>
      <point x="164" y="291" type="curve"/>
      <point x="164" y="740" type="line"/>
      <point x="73" y="740" type="line"/>
      <point x="73" y="291" type="line"/>
      <point x="73" y="141"/>
      <point x="149" y="-10"/>
    </contour>
  </outline>
</glyph>
<glyph name="adieresis" format="2">
  <advance width="510"/>
  <unicode hex="00E4"/>
  <outline>
    <contour>
      <point x="96" y="635" type="curve" smooth="yes"/>
      <point x="96" y="602"/>
      <point x="117" y="582"/>
      <point x="152" y="582" type="curve" smooth="yes"/>
      <point x="187" y="582"/>
      <point x="207" y="602"/>
      <point x="207" y="635" type="curve" smooth="yes"/>
      <point x="207" y="668"/>
      <point x="187" y="688"/>
      <point x="152" y="688" type="curve" smooth="yes"/>
      <point x="117" y="688"/>
      <point x="96" y="668"/>
    </contour>
    <contour>
      <point x="271" y="635" type="curve" smooth="yes"/>
      <point x="271" y="602"/>
      <point x="292" y="582"/>
      <point x="327" y="582" type="curve" smooth="yes"/>
      <point x="362" y="582"/>
      <point x="382" y="602"/>
      <point x="382" y="635" type="curve" smooth="yes"/>
      <point x="382" y="668"/>
      <point x="362" y="688"/>
      <point x="327" y="688" type="curve" smooth="yes"/>
      <point x="292" y="688"/>
      <point x="271" y="668"/>
    </contour>
    <contour>
      <point x="341" y="297" type="line"/>
      <point x="341" y="349"/>
      <point x="325" y="410"/>
      <point x="240" y="410" type="curve" smooth="yes"/>
      <point x="128" y="410"/>
      <point x="128" y="346"/>
      <point x="138" y="318" type="curve"/>
      <point x="53" y="324" type="line"/>
      <point x="51" y="333"/>
      <point x="51" y="338"/>
      <point x="51" y="346" type="curve" smooth="yes"/>
      <point x="51" y="427"/>
      <point x="145" y="475"/>
      <point x="239" y="475" type="curve" smooth="yes"/>
      <point x="330" y="475"/>
      <point x="425" y="445"/>
      <point x="425" y="299" type="curve"/>
      <point x="425" y="113" type="line"/>
      <point x="425" y="74"/>
      <point x="433" y="51"/>
      <point x="477" y="56" type="curve"/>
      <point x="477" y="-3" type="line"/>
      <point x="471" y="-5"/>
      <point x="449" y="-10"/>
      <point x="435" y="-10" type="curve" smooth="yes"/>
      <point x="382" y="-10"/>
      <point x="354" y="32"/>
      <point x="351" y="66" type="curve"/>
      <point x="341" y="70" type="line"/>
    </contour>
    <contour>
      <point x="355" y="85" type="line"/>
      <point x="314" y="31"/>
      <point x="255" y="-10"/>
      <point x="184" y="-10" type="curve" smooth="yes"/>
      <point x="98" y="-10"/>
      <point x="38" y="39"/>
      <point x="38" y="116" type="curve" smooth="yes"/>
      <point x="38" y="187"/>
      <point x="79" y="232"/>
      <point x="149" y="252" type="curve" smooth="yes"/>
      <point x="176" y="260"/>
      <point x="211" y="262"/>
      <point x="244" y="263" type="curve"/>
      <point x="352" y="266" type="line"/>
      <point x="352" y="209" type="line"/>
      <point x="249" y="205" type="line" smooth="yes"/>
      <point x="189" y="202"/>
      <point x="128" y="184"/>
      <point x="128" y="122" type="curve" smooth="yes"/>
      <point x="128" y="78"/>
      <point x="158" y="57"/>
      <point x="201" y="57" type="curve" smooth="yes"/>
      <point x="253" y="57"/>
      <point x="322" y="97"/>
      <point x="352" y="171" type="curve"/>
      <point x="356" y="171" type="line"/>
    </contour>
  </outline>
</glyph>
<glyph name="aring" format="2">
  <advance width="510"/>
  <unicode hex="00E5"/>
  <outline>
    <contour>
      <point x="183.5" y="597.25" type="curve"/>
      <point x="183.5" y="629"/>
      <point x="202.5" y="660.75"/>
      <point x="241.75" y="660.75" type="curve" smooth="yes"/>
      <point x="280.5" y="660.75"/>
      <point x="299.75" y="631.5"/>
      <point x="299.75" y="599.75" type="curve" smooth="yes"/>
      <point x="299.75" y="568.25"/>
      <point x="280.5" y="539"/>
      <point x="241.75" y="539" type="curve" smooth="yes"/>
      <point x="202.5" y="539"/>
      <point x="183.5" y="568.25"/>
    </contour>
    <contour>
      <point x="206.25" y="599.75" type="curve"/>
      <point x="206.25" y="578.75"/>
      <point x="215.75" y="555.5"/>
      <point x="241.75" y="555.5" type="curve" smooth="yes"/>
      <point x="267.75" y="555.5"/>
      <point x="276.75" y="578.75"/>
      <point x="276.75" y="599.75" type="curve" smooth="yes"/>
      <point x="276.75" y="621"/>
      <point x="267.75" y="644.25"/>
      <point x="241.75" y="644.25" type="curve" smooth="yes"/>
      <point x="215.75" y="644.25"/>
      <point x="206.25" y="621"/>
    </contour>
    <contour>
      <point x="341" y="297" type="line"/>
      <point x="341" y="349"/>
      <point x="325" y="410"/>
      <point x="240" y="410" type="curve" smooth="yes"/>
      <point x="128" y="410"/>
      <point x="128" y="346"/>
      <point x="138" y="318" type="curve"/>
      <point x="53" y="324" type="line"/>
      <point x="51" y="333"/>
      <point x="51" y="338"/>
      <point x="51" y="346" type="curve" smooth="yes"/>
      <point x="51" y="427"/>
      <point x="145" y="475"/>
      <point x="239" y="475" type="curve" smooth="yes"/>
      <point x="330" y="475"/>
      <point x="425" y="445"/>
      <point x="425" y="299" type="curve"/>
      <point x="425" y="113" type="line"/>
      <point x="425" y="74"/>
      <point x="433" y="51"/>
      <point x="477" y="56" type="curve"/>
      <point x="477" y="-3" type="line"/>
      <point x="471" y="-5"/>
      <point x="449" y="-10"/>
      <point x="435" y="-10" type="curve" smooth="yes"/>
      <point x="382" y="-10"/>
      <point x="354" y="32"/>
      <point x="351" y="66" type="curve"/>
      <point x="341" y="70" type="line"/>
    </contour>
    <contour>
      <point x="355" y="85" type="line"/>
      <point x="314" y="31"/>
      <point x="255" y="-10"/>
      <point x="184" y="-10" type="curve" smooth="yes"/>
      <point x="98" y="-10"/>
      <point x="38" y="39"/>
      <point x="38" y="116" type="curve" smooth="yes"/>
      <point x="38" y="187"/>
      <point x="79" y="232"/>
      <point x="149" y="252" type="curve" smooth="yes"/>
      <point x="176" y="260"/>
      <point x="211" y="262"/>
      <point x="244" y="263" type="curve"/>
      <point x="352" y="266" type="line"/>
      <point x="352" y="209" type="line"/>
      <point x="249" y="205" type="line" smooth="yes"/>
      <point x="189" y="202"/>
      <point x="128" y="184"/>
      <point x="128" y="122" type="curve" smooth="yes"/>
      <point x="128" y="78"/>
      <point x="158" y="57"/>
      <point x="201" y="57" type="curve" smooth="yes"/>
      <point x="253" y="57"/>
      <point x="322" y="97"/>
      <point x="352" y="171" type="curve"/>
      <point x="356" y="171" type="line"/>
    </contour>
  </outline>
</glyph>
<glyph name="ae" format="2">
  <advance width="708"/>
  <unicode hex="00E6"/>
  <outline>
    <contour>
      <point x="311.4" y="85" type="line"/>
      <point x="276.961" y="31"/>
      <point x="227.4" y="-10"/>
      <point x="167.761" y="-10" type="curve" smooth="yes"/>
      <point x="95.5195" y="-10"/>
      <point x="45.1201" y="39"/>
      <point x="45.1201" y="116" type="curve" smooth="yes"/>
      <point x="45.1201" y="187"/>
      <point x="79.5605" y="232"/>
      <point x="138.36" y="252" type="curve" smooth="yes"/>
      <point x="161.039" y="260"/>
      <point x="190.439" y="262"/>
      <point x="218.16" y="263" type="curve" smooth="yes"/>
      <point x="299.64" y="265.694" type="line"/>
      <point x="299.64" y="297" type="line" smooth="yes"/>
      <point x="299.64" y="349"/>
      <point x="286.2" y="410"/>
      <point x="214.8" y="410" type="curve" smooth="yes"/>
      <point x="120.72" y="410"/>
      <point x="120.72" y="346"/>
      <point x="129.12" y="318" type="curve"/>
      <point x="57.7197" y="324" type="line"/>
      <point x="56.0391" y="333"/>
      <point x="56.0391" y="338"/>
      <point x="56.0391" y="346" type="curve" smooth="yes"/>
      <point x="56.0391" y="427"/>
      <point x="135" y="475"/>
      <point x="213.961" y="475" type="curve" smooth="yes"/>
      <point x="269.519" y="475"/>
      <point x="326.853" y="459.152"/>
      <point x="354.031" y="394.434" type="curve"/>
      <point x="384.879" y="443.252"/>
      <point x="430.534" y="472"/>
      <point x="485" y="472" type="curve" smooth="yes"/>
      <point x="579.071" y="472"/>
      <point x="648.562" y="394.831"/>
      <point x="650.09" y="271" type="curve"/>
      <point x="650.911" y="271" type="line"/>
      <point x="650.911" y="215" type="line"/>
      <point x="377.067" y="215" type="line"/>
      <point x="380.12" y="126.169"/>
      <point x="409.57" y="54"/>
      <point x="489.007" y="54" type="curve" smooth="yes"/>
      <point x="517.861" y="54"/>
      <point x="540.303" y="67"/>
      <point x="558.738" y="90" type="curve" smooth="yes"/>
      <point x="570.761" y="106"/>
      <point x="579.576" y="128"/>
      <point x="578.775" y="156" type="curve"/>
      <point x="643.696" y="145" type="line"/>
      <point x="646.102" y="105"/>
      <point x="626.865" y="68"/>
      <point x="606.026" y="43" type="curve" smooth="yes"/>
      <point x="573.966" y="3"/>
      <point x="531.487" y="-12"/>
      <point x="477.787" y="-12" type="curve" smooth="yes"/>
      <point x="477.772" y="-12"/>
      <point x="477.757" y="-12"/>
      <point x="477.742" y="-12" type="curve" smooth="yes"/>
      <point x="477.734" y="-12"/>
      <point x="477.727" y="-12"/>
      <point x="477.72" y="-12" type="curve" smooth="yes"/>
      <point x="477.703" y="-12"/>
      <point x="477.686" y="-12"/>
      <point x="477.67" y="-12" type="curve" smooth="yes"/>
      <point x="419.976" y="-11.9654"/>
      <point x="377.339" y="13.5587"/>
      <point x="349.647" y="57.7603" type="curve"/>
      <point x="328.647" y="76.1338"/>
      <point x="313.681" y="94.1194"/>
      <point x="312.8" y="106" type="curve"/>
      <point x="311.572" y="102.643" type="line"/>
    </contour>
    <contour>
      <point x="299.64" y="208.573" type="line"/>
      <point x="222.36" y="205" type="line" smooth="yes"/>
      <point x="171.961" y="202"/>
      <point x="120.72" y="184"/>
      <point x="120.72" y="122" type="curve" smooth="yes"/>
      <point x="120.72" y="78"/>
      <point x="145.92" y="57"/>
      <point x="182.039" y="57" type="curve" smooth="yes"/>
      <point x="221.007" y="57"/>
      <point x="271.341" y="88.8351"/>
      <point x="299.64" y="148.245" type="curve"/>
    </contour>
    <contour>
      <point x="582.077" y="271" type="line"/>
      <point x="584.189" y="353.284"/>
      <point x="542.819" y="406"/>
      <point x="485.801" y="406" type="curve" smooth="yes"/>
      <point x="419.369" y="406"/>
      <point x="386.878" y="346.858"/>
      <point x="378.829" y="271" type="curve"/>
    </contour>
  </outline>
</glyph>
<glyph name="ccedilla" format="2">
  <advance width="493"/>
  <unicode hex="00E7"/>
  <outline>
    <contour>
      <point x="219" y="11" type="line"/>
      <point x="199" y="-79" type="line"/>
      <point x="247" y="-74"/>
      <point x="286" y="-94"/>
      <point x="286" y="-125" type="curve" smooth="yes"/>
      <point x="286" y="-150"/>
      <point x="262" y="-159"/>
      <point x="240" y="-159" type="curve" smooth="yes"/>
      <point x="211" y="-159"/>
      <point x="185" y="-147"/>
      <point x="185" y="-147" type="curve"/>
      <point x="168" y="-196" type="line"/>
      <point x="182" y="-203"/>
      <point x="208" y="-214"/>
      <point x="250" y="-214" type="curve" smooth="yes"/>
      <point x="301" y="-214"/>
      <point x="362" y="-192"/>
      <point x="362" y="-126" type="curve" smooth="yes"/>
      <point x="362" y="-72"/>
      <point x="319" y="-46"/>
      <point x="273" y="-35" type="curve"/>
      <point x="276" y="11" type="line"/>
    </contour>
    <contour>
      <point x="383" y="179" type="line"/>
      <point x="383" y="145"/>
      <point x="374" y="114"/>
      <point x="356" y="95" type="curve" smooth="yes"/>
      <point x="332" y="71"/>
      <point x="302" y="58"/>
      <point x="267" y="58" type="curve" smooth="yes"/>
      <point x="169" y="58"/>
      <point x="128" y="141"/>
      <point x="128" y="234" type="curve" smooth="yes"/>
      <point x="128" y="325"/>
      <point x="181" y="413"/>
      <point x="268" y="413" type="curve" smooth="yes"/>
      <point x="303" y="413"/>
      <point x="336" y="402"/>
      <point x="360" y="374" type="curve" smooth="yes"/>
      <point x="375" y="358"/>
      <point x="386" y="332"/>
      <point x="384" y="302" type="curve"/>
      <point x="464" y="313" type="line"/>
      <point x="470" y="362"/>
      <point x="442" y="406"/>
      <point x="409" y="434" type="curve" smooth="yes"/>
      <point x="371" y="466"/>
      <point x="323" y="479"/>
      <point x="266" y="479" type="curve" smooth="yes"/>
      <point x="135" y="479"/>
      <point x="41" y="373"/>
      <point x="41" y="227" type="curve" smooth="yes"/>
      <point x="41" y="86"/>
      <point x="115" y="-9"/>
      <point x="253" y="-9" type="curve" smooth="yes"/>
      <point x="310" y="-9"/>
      <point x="361" y="4"/>
      <point x="401" y="35" type="curve" smooth="yes"/>
      <point x="438" y="65"/>
      <point x="471" y="114"/>
      <point x="466" y="168" type="curve"/>
    </contour>
  </outline>
</glyph>
<glyph name="edieresis" format="2">
  <advance width="504"/>
  <unicode hex="00EB"/>
  <outline>
    <contour>
      <point x="115" y="635" type="curve" smooth="yes"/>
      <point x="115" y="602"/>
      <point x="136" y="582"/>
      <point x="171" y="582" type="curve" smooth="yes"/>
      <point x="206" y="582"/>
      <point x="226" y="602"/>
      <point x="226" y="635" type="curve" smooth="yes"/>
      <point x="226" y="668"/>
      <point x="206" y="688"/>
      <point x="171" y="688" type="curve" smooth="yes"/>
      <point x="136" y="688"/>
      <point x="115" y="668"/>
    </contour>
    <contour>
      <point x="290" y="635" type="curve" smooth="yes"/>
      <point x="290" y="602"/>
      <point x="311" y="582"/>
      <point x="346" y="582" type="curve" smooth="yes"/>
      <point x="381" y="582"/>
      <point x="401" y="602"/>
      <point x="401" y="635" type="curve" smooth="yes"/>
      <point x="401" y="668"/>
      <point x="381" y="688"/>
      <point x="346" y="688" type="curve" smooth="yes"/>
      <point x="311" y="688"/>
      <point x="290" y="668"/>
    </contour>
    <contour>
      <point x="116" y="218" type="line"/>
      <point x="464" y="218" type="line"/>
      <point x="464" y="274" type="line"/>
      <point x="116" y="274" type="line"/>
    </contour>
    <contour>
      <point x="374" y="159" type="line"/>
      <point x="375" y="131"/>
      <point x="364" y="109"/>
      <point x="349" y="93" type="curve" smooth="yes"/>
      <point x="326" y="70"/>
      <point x="298" y="57"/>
      <point x="262" y="57" type="curve" smooth="yes"/>
      <point x="157" y="57"/>
      <point x="122" y="138"/>
      <point x="122" y="234" type="curve" smooth="yes"/>
      <point x="122" y="328"/>
      <point x="161" y="409"/>
      <point x="258" y="409" type="curve" smooth="yes"/>
      <point x="330" y="409"/>
      <point x="382" y="355"/>
      <point x="378" y="271" type="curve"/>
      <point x="463" y="272" type="line"/>
      <point x="462" y="397"/>
      <point x="375" y="475"/>
      <point x="257" y="475" type="curve" smooth="yes"/>
      <point x="129" y="475"/>
      <point x="40" y="373"/>
      <point x="40" y="227" type="curve" smooth="yes"/>
      <point x="40" y="86"/>
      <point x="109" y="-9"/>
      <point x="248" y="-9" type="curve" smooth="yes"/>
      <point x="315" y="-9"/>
      <point x="368" y="6"/>
      <point x="408" y="46" type="curve" smooth="yes"/>
      <point x="434" y="71"/>
      <point x="458" y="108"/>
      <point x="455" y="148" type="curve"/>
    </contour>
  </outline>
</glyph>
<glyph name="igrave" format="2">
  <advance width="235"/>
  <unicode hex="00EC"/>
  <outline>
    <contour>
      <point x="113" y="740" type="line"/>
      <point x="207" y="542" type="line"/>
      <point x="142" y="542" type="line"/>
      <point x="21" y="740" type="line"/>
    </contour>
    <contour>
      <point x="75" y="470" type="line"/>
      <point x="157" y="470" type="line"/>
      <point x="157" y="0" type="line"/>
      <point x="75" y="0" type="line"/>
    </contour>
  </outline>
</glyph>
<glyph name="iacute" format="2">
  <advance width="235"/>
  <unicode hex="00ED"/>
  <outline>
    <contour>
      <point x="135" y="740" type="line"/>
      <point x="41" y="542" type="line"/>
      <point x="106" y="542" type="line"/>
      <point x="227" y="740" type="line"/>
    </contour>
    <contour>
      <point x="75" y="470" type="line"/>
      <point x="157" y="470" type="line"/>
      <point x="157" y="0" type="line"/>
      <point x="75" y="0" type="line"/>
    </contour>
  </outline>
</glyph>
<glyph name="icircumflex" format="2">
  <advance width="235"/>
  <unicode hex="00EE"/>
  <outline>
    <contour>
      <point x="84" y="750" type="line"/>
      <point x="-68" y="542" type="line"/>
      <point x="14" y="542" type="line"/>
      <point x="115" y="669" type="line"/>
      <point x="216" y="542" type="line"/>
      <point x="298" y="542" type="line"/>
      <point x="146" y="750" type="line"/>
    </contour>
    <contour>
      <point x="75" y="470" type="line"/>
      <point x="157" y="470" type="line"/>
      <point x="157" y="0" type="line"/>
      <point x="75" y="0" type="line"/>
    </contour>
  </outline>
</glyph>
<glyph name="idieresis" format="2">
  <advance width="235"/>
  <unicode hex="00EF"/>
  <outline>
    <contour>
      <point x="-26" y="655" type="curve" smooth="yes"/>
      <point x="-26" y="622"/>
      <point x="-5" y="602"/>
      <point x="30" y="602" type="curve" smooth="yes"/>
      <point x="65" y="602"/>
      <point x="85" y="622"/>
      <point x="85" y="655" type="curve" smooth="yes"/>
      <point x="85" y="688"/>
      <point x="65" y="708"/>
      <point x="30" y="708" type="curve" smooth="yes"/>
      <point x="-5" y="708"/>
      <point x="-26" y="688"/>
    </contour>
    <contour>
      <point x="149" y="655" type="curve" smooth="yes"/>
      <point x="149" y="622"/>
      <point x="170" y="602"/>
      <point x="205" y="602" type="curve" smooth="yes"/>
      <point x="240" y="602"/>
      <point x="260" y="622"/>
      <point x="260" y="655" type="curve" smooth="yes"/>
      <point x="260" y="688"/>
      <point x="240" y="708"/>
      <point x="205" y="708" type="curve" smooth="yes"/>
      <point x="170" y="708"/>
      <point x="149" y="688"/>
    </contour>
    <contour>
      <point x="75" y="470" type="line"/>
      <point x="157" y="470" type="line"/>
      <point x="157" y="0" type="line"/>
      <point x="75" y="0" type="line"/>
    </contour>
  </outline>
</glyph>
<glyph name="ntilde" format="2">
  <advance width="535"/>
  <unicode hex="00F1"/>
  <outline>
    <contour>
      <point x="146" y="555" type="line"/>
      <point x="146" y="579"/>
      <point x="153" y="618"/>
      <point x="194" y="618" type="curve" smooth="yes"/>
      <point x="227" y="618"/>
      <point x="260" y="560"/>
      <point x="318" y="560" type="curve" smooth="yes"/>
      <point x="406" y="560"/>
      <point x="434" y="629"/>
      <point x="434" y="695" type="curve"/>
      <point x="381" y="695" type="line"/>
      <point x="381" y="671"/>
      <point x="380" y="632"/>
      <point x="333" y="632" type="curve" smooth="yes"/>
      <point x="300" y="632"/>
      <point x="267" y="690"/>
      <point x="209" y="690" type="curve" smooth="yes"/>
      <point x="121" y="690"/>
      <point x="93" y="621"/>
      <point x="93" y="555" type="curve"/>
    </contour>
    <contour>
      <point x="82" y="0" type="line"/>
      <point x="164" y="0" type="line"/>
      <point x="164" y="356" type="line"/>
      <point x="156" y="360" type="line"/>
      <point x="156" y="470" type="line"/>
      <point x="82" y="470" type="line"/>
    </contour>
    <contour>
      <point x="391" y="0" type="line"/>
      <point x="473" y="0" type="line"/>
      <point x="473" y="292" type="line" smooth="yes"/>
      <point x="473" y="401"/>
      <point x="421" y="475"/>
      <point x="305" y="475" type="curve" smooth="yes"/>
      <point x="211" y="475"/>
      <point x="138" y="397"/>
      <point x="140" y="306" type="curve"/>
      <point x="159" y="255" type="line"/>
      <point x="164" y="255" type="line"/>
      <point x="164" y="369"/>
      <point x="241" y="398"/>
      <point x="287" y="398" type="curve" smooth="yes"/>
      <point x="347" y="398"/>
      <point x="391" y="365"/>
      <point x="391" y="274" type="curve" smooth="yes"/>
    </contour>
  </outline>
</glyph>
<glyph name="ocircumflex" format="2">
  <advance width="545"/>
  <unicode hex="00F4"/>
  <outline>
    <contour>
      <point x="238" y="750" type="line"/>
      <point x="86" y="542" type="line"/>
      <point x="168" y="542" type="line"/>
      <point x="269" y="669" type="line"/>
      <point x="370" y="542" type="line"/>
      <point x="452" y="542" type="line"/>
      <point x="300" y="750" type="line"/>
    </contour>
    <contour>
      <point x="40" y="223" type="curve"/>
      <point x="40" y="350"/>
      <point x="116" y="477"/>
      <point x="273" y="477" type="curve" smooth="yes"/>
      <point x="428" y="477"/>
      <point x="505" y="360"/>
      <point x="505" y="233" type="curve" smooth="yes"/>
      <point x="505" y="107"/>
      <point x="428" y="-10"/>
      <point x="273" y="-10" type="curve" smooth="yes"/>
      <point x="116" y="-10"/>
      <point x="40" y="107"/>
    </contour>
    <contour>
      <point x="131" y="233" type="curve"/>
      <point x="131" y="149"/>
      <point x="169" y="56"/>
      <point x="273" y="56" type="curve" smooth="yes"/>
      <point x="377" y="56"/>
      <point x="413" y="149"/>
      <point x="413" y="233" type="curve" smooth="yes"/>
      <point x="413" y="318"/>
      <point x="377" y="411"/>
      <point x="273" y="411" type="curve" smooth="yes"/>
      <point x="169" y="411"/>
      <point x="131" y="318"/>
    </contour>
  </outline>
</glyph>
<glyph name="otilde" format="2">
  <advance width="545"/>
  <unicode hex="00F5"/>
  <outline>
    <contour>
      <point x="146" y="555" type="line"/>
      <point x="146" y="579"/>
      <point x="153" y="618"/>
      <point x="194" y="618" type="curve" smooth="yes"/>
      <point x="227" y="618"/>
      <point x="260" y="560"/>
      <point x="318" y="560" type="curve" smooth="yes"/>
      <point x="406" y="560"/>
      <point x="434" y="629"/>
      <point x="434" y="695" type="curve"/>
      <point x="381" y="695" type="line"/>
      <point x="381" y="671"/>
      <point x="380" y="632"/>
      <point x="333" y="632" type="curve" smooth="yes"/>
      <point x="300" y="632"/>
      <point x="267" y="690"/>
      <point x="209" y="690" type="curve" smooth="yes"/>
      <point x="121" y="690"/>
      <point x="93" y="621"/>
      <point x="93" y="555" type="curve"/>
    </contour>
    <contour>
      <point x="40" y="223" type="curve"/>
      <point x="40" y="350"/>
      <point x="116" y="477"/>
      <point x="273" y="477" type="curve" smooth="yes"/>
      <point x="428" y="477"/>
      <point x="505" y="360"/>
      <point x="505" y="233" type="curve" smooth="yes"/>
      <point x="505" y="107"/>
      <point x="428" y="-10"/>
      <point x="273" y="-10" type="curve" smooth="yes"/>
      <point x="116" y="-10"/>
      <point x="40" y="107"/>
    </contour>
    <contour>
      <point x="131" y="233" type="curve"/>
      <point x="131" y="149"/>
      <point x="169" y="56"/>
      <point x="273" y="56" type="curve" smooth="yes"/>
      <point x="377" y="56"/>
      <point x="413" y="149"/>
      <point x="413" y="233" type="curve" smooth="yes"/>
      <point x="413" y="318"/>
      <point x="377" y="411"/>
      <point x="273" y="411" type="curve" smooth="yes"/>
      <point x="169" y="411"/>
      <point x="131" y="318"/>
    </contour>
  </outline>
</glyph>
<glyph name="odieresis" format="2">
  <advance width="545"/>
  <unicode hex="00F6"/>
  <outline>
    <contour>
      <point x="133" y="635" type="curve" smooth="yes"/>
      <point x="133" y="602"/>
      <point x="154" y="582"/>
      <point x="189" y="582" type="curve" smooth="yes"/>
      <point x="224" y="582"/>
      <point x="244" y="602"/>
      <point x="244" y="635" type="curve" smooth="yes"/>
      <point x="244" y="668"/>
      <point x="224" y="688"/>
      <point x="189" y="688" type="curve" smooth="yes"/>
      <point x="154" y="688"/>
      <point x="133" y="668"/>
    </contour>
    <contour>
      <point x="308" y="635" type="curve" smooth="yes"/>
      <point x="308" y="602"/>
      <point x="329" y="582"/>
      <point x="364" y="582" type="curve" smooth="yes"/>
      <point x="399" y="582"/>
      <point x="419" y="602"/>
      <point x="419" y="635" type="curve" smooth="yes"/>
      <point x="419" y="668"/>
      <point x="399" y="688"/>
      <point x="364" y="688" type="curve" smooth="yes"/>
      <point x="329" y="688"/>
      <point x="308" y="668"/>
    </contour>
    <contour>
      <point x="40" y="223" type="curve"/>
      <point x="40" y="350"/>
      <point x="116" y="477"/>
      <point x="273" y="477" type="curve" smooth="yes"/>
      <point x="428" y="477"/>
      <point x="505" y="360"/>
      <point x="505" y="233" type="curve" smooth="yes"/>
      <point x="505" y="107"/>
      <point x="428" y="-10"/>
      <point x="273" y="-10" type="curve" smooth="yes"/>
      <point x="116" y="-10"/>
      <point x="40" y="107"/>
    </contour>
    <contour>
      <point x="131" y="233" type="curve"/>
      <point x="131" y="149"/>
      <point x="169" y="56"/>
      <point x="273" y="56" type="curve" smooth="yes"/>
      <point x="377" y="56"/>
      <point x="413" y="149"/>
      <point x="413" y="233" type="curve" smooth="yes"/>
      <point x="413" y="318"/>
      <point x="377" y="411"/>
      <point x="273" y="411" type="curve" smooth="yes"/>
      <point x="169" y="411"/>
      <point x="131" y="318"/>
    </contour>
  </outline>
</glyph>
<glyph name="ucircumflex" format="2">
  <advance width="508"/>
  <unicode hex="00FB"/>
  <outline>
    <contour>
      <point x="215" y="750" type="line"/>
      <point x="63" y="542" type="line"/>
      <point x="145" y="542" type="line"/>
      <point x="246" y="669" type="line"/>
      <point x="347" y="542" type="line"/>
      <point x="429" y="542" type="line"/>
      <point x="277" y="750" type="line"/>
    </contour>
    <contour>
      <point x="441" y="470" type="line"/>
      <point x="359" y="470" type="line"/>
      <point x="359" y="109" type="line"/>
      <point x="367" y="105" type="line"/>
      <point x="367" y="0" type="line"/>
      <point x="441" y="0" type="line"/>
    </contour>
    <contour>
      <point x="132" y="470" type="line"/>
      <point x="50" y="470" type="line"/>
      <point x="50" y="173" type="line" smooth="yes"/>
      <point x="50" y="64"/>
      <point x="102" y="-10"/>
      <point x="218" y="-10" type="curve" smooth="yes"/>
      <point x="312" y="-10"/>
      <point x="385" y="68"/>
      <point x="383" y="159" type="curve"/>
      <point x="364" y="210" type="line"/>
      <point x="359" y="210" type="line"/>
      <point x="359" y="96"/>
      <point x="282" y="67"/>
      <point x="236" y="67" type="curve" smooth="yes"/>
      <point x="170" y="67"/>
      <point x="132" y="100"/>
      <point x="132" y="191" type="curve" smooth="yes"/>
    </contour>
  </outline>
</glyph>
<glyph name="udieresis" format="2">
  <advance width="508"/>
  <unicode hex="00FC"/>
  <outline>
    <contour>
      <point x="104" y="635" type="curve" smooth="yes"/>
      <point x="104" y="602"/>
      <point x="125" y="582"/>
      <point x="160" y="582" type="curve" smooth="yes"/>
      <point x="195" y="582"/>
      <point x="215" y="602"/>
      <point x="215" y="635" type="curve" smooth="yes"/>
      <point x="215" y="668"/>
      <point x="195" y="688"/>
      <point x="160" y="688" type="curve" smooth="yes"/>
      <point x="125" y="688"/>
      <point x="104" y="668"/>
    </contour>
    <contour>
      <point x="279" y="635" type="curve" smooth="yes"/>
      <point x="279" y="602"/>
      <point x="300" y="582"/>
      <point x="335" y="582" type="curve" smooth="yes"/>
      <point x="370" y="582"/>
      <point x="390" y="602"/>
      <point x="390" y="635" type="curve" smooth="yes"/>
      <point x="390" y="668"/>
      <point x="370" y="688"/>
      <point x="335" y="688" type="curve" smooth="yes"/>
      <point x="300" y="688"/>
      <point x="279" y="668"/>
    </contour>
    <contour>
      <point x="441" y="470" type="line"/>
      <point x="359" y="470" type="line"/>
      <point x="359" y="109" type="line"/>
      <point x="367" y="105" type="line"/>
      <point x="367" y="0" type="line"/>
      <point x="441" y="0" type="line"/>
    </contour>
    <contour>
      <point x="132" y="470" type="line"/>
      <point x="50" y="470" type="line"/>
      <point x="50" y="173" type="line" smooth="yes"/>
      <point x="50" y="64"/>
      <point x="102" y="-10"/>
      <point x="218" y="-10" type="curve" smooth="yes"/>
      <point x="312" y="-10"/>
      <point x="385" y="68"/>
      <point x="383" y="159" type="curve"/>
      <point x="364" y="210" type="line"/>
      <point x="359" y="210" type="line"/>
      <point x="359" y="96"/>
      <point x="282" y="67"/>
      <point x="236" y="67" type="curve" smooth="yes"/>
      <point x="170" y="67"/>
      <point x="132" y="100"/>
      <point x="132" y="191" type="curve" smooth="yes"/>
    </contour>
  </outline>
</glyph>
